<mxfile host="Electron" modified="2023-12-18T15:05:32.054Z" agent="Mozilla/5.0 (Windows NT 10.0; Win64; x64) AppleWebKit/537.36 (KHTML, like Gecko) draw.io/22.1.2 Chrome/114.0.5735.289 Electron/25.9.4 Safari/537.36" etag="R6ortXm_A98IksS9a-VG" version="22.1.2" type="device">
  <diagram id="3228e29e-7158-1315-38df-8450db1d8a1d" name="Page-1">
    <mxGraphModel dx="2440" dy="1832" grid="1" gridSize="10" guides="1" tooltips="1" connect="1" arrows="1" fold="1" page="1" pageScale="1" pageWidth="1169" pageHeight="827" background="none" math="0" shadow="0">
      <root>
        <mxCell id="0" />
        <mxCell id="1" parent="0" />
        <mxCell id="21635" value="&lt;div style=&quot;text-align: center ; font-size: 16px&quot;&gt;&lt;br&gt;&lt;/div&gt;" style="ellipse;whiteSpace=wrap;html=1;aspect=fixed;rounded=1;shadow=0;glass=0;labelBackgroundColor=none;strokeColor=none;strokeWidth=1;fillColor=#F08705;gradientColor=none;fontFamily=Helvetica;fontSize=16;fontColor=#2F5B7C;align=center;opacity=50;verticalAlign=top;spacing=15;" parent="1" vertex="1">
          <mxGeometry x="724.5" y="231" width="45" height="45" as="geometry" />
        </mxCell>
        <mxCell id="21636" value="" style="ellipse;whiteSpace=wrap;html=1;aspect=fixed;rounded=1;shadow=0;glass=0;labelBackgroundColor=none;strokeColor=none;strokeWidth=1;fillColor=#736CA8;gradientColor=none;fontFamily=Helvetica;fontSize=16;fontColor=#2F5B7C;align=left;opacity=50;spacing=15;" parent="1" vertex="1">
          <mxGeometry x="724.5" y="231" width="45" height="45" as="geometry" />
        </mxCell>
        <mxCell id="21637" value="&lt;div style=&quot;text-align: center; font-size: 16px;&quot;&gt;&lt;span style=&quot;font-size: 16px;&quot;&gt;right&lt;/span&gt;&lt;/div&gt;" style="ellipse;whiteSpace=wrap;html=1;aspect=fixed;rounded=1;shadow=0;glass=0;labelBackgroundColor=none;strokeColor=none;strokeWidth=1;fillColor=#F08705;gradientColor=none;fontFamily=Helvetica;fontSize=16;fontColor=#2F5B7C;align=center;opacity=50;verticalAlign=top;spacing=15;" parent="1" vertex="1">
          <mxGeometry x="364.5" y="203.5" width="200" height="200" as="geometry" />
        </mxCell>
        <mxCell id="21638" value="place" style="ellipse;whiteSpace=wrap;html=1;aspect=fixed;rounded=1;shadow=0;glass=0;labelBackgroundColor=none;strokeColor=none;strokeWidth=1;fillColor=#736CA8;gradientColor=none;fontFamily=Helvetica;fontSize=16;fontColor=#2F5B7C;align=left;opacity=50;spacing=15;" parent="1" vertex="1">
          <mxGeometry x="304.5" y="313.5" width="200" height="200" as="geometry" />
        </mxCell>
        <mxCell id="21639" value="time" style="ellipse;whiteSpace=wrap;html=1;aspect=fixed;rounded=1;shadow=0;glass=0;labelBackgroundColor=none;strokeColor=none;strokeWidth=1;fillColor=#12AAB5;gradientColor=none;fontFamily=Helvetica;fontSize=16;fontColor=#2F5B7C;align=right;opacity=50;spacing=15;" parent="1" vertex="1">
          <mxGeometry x="424.5" y="313.5" width="200" height="200" as="geometry" />
        </mxCell>
        <mxCell id="21640" value="&lt;div style=&quot;text-align: center; font-size: 16px;&quot;&gt;&lt;span style=&quot;font-size: 16px;&quot;&gt;wrong&lt;/span&gt;&lt;/div&gt;" style="ellipse;whiteSpace=wrap;html=1;aspect=fixed;rounded=1;shadow=0;glass=0;labelBackgroundColor=none;strokeColor=none;strokeWidth=1;fillColor=#AE4132;gradientColor=none;fontFamily=Helvetica;fontSize=16;fontColor=#2F5B7C;align=center;opacity=50;verticalAlign=bottom;spacingBottom=15;spacing=15;" parent="1" vertex="1">
          <mxGeometry x="364.5" y="423.5" width="200" height="200" as="geometry" />
        </mxCell>
        <mxCell id="21641" value="y" style="text;html=1;strokeColor=none;fillColor=none;align=center;verticalAlign=middle;whiteSpace=wrap;rounded=0;shadow=0;glass=0;labelBackgroundColor=none;fontFamily=Helvetica;fontSize=16;fontColor=#2F5B7C;" parent="1" vertex="1">
          <mxGeometry x="444.5" y="443.5" width="40" height="20" as="geometry" />
        </mxCell>
        <mxCell id="21642" value="x" style="text;html=1;strokeColor=none;fillColor=none;align=center;verticalAlign=middle;whiteSpace=wrap;rounded=0;shadow=0;glass=0;labelBackgroundColor=none;fontFamily=Helvetica;fontSize=16;fontColor=#2F5B7C;" parent="1" vertex="1">
          <mxGeometry x="444.5" y="363.5" width="40" height="20" as="geometry" />
        </mxCell>
        <mxCell id="21643" value="x" style="ellipse;whiteSpace=wrap;html=1;aspect=fixed;rounded=1;shadow=0;glass=0;labelBackgroundColor=none;strokeColor=none;strokeWidth=1;fillColor=#12AAB5;gradientColor=none;fontFamily=Helvetica;fontSize=16;fontColor=#2F5B7C;align=center;opacity=50;spacing=15;" parent="1" vertex="1">
          <mxGeometry x="724.5" y="231" width="45" height="45" as="geometry" />
        </mxCell>
        <mxCell id="21644" value="success" style="text;html=1;resizable=0;points=[];autosize=1;align=left;verticalAlign=top;spacingTop=-4;fontSize=16;fontFamily=Helvetica;fontColor=#2F5B7C;" parent="1" vertex="1">
          <mxGeometry x="794.5" y="243.5" width="70" height="20" as="geometry" />
        </mxCell>
        <mxCell id="21645" value="" style="ellipse;whiteSpace=wrap;html=1;aspect=fixed;rounded=1;shadow=0;glass=0;labelBackgroundColor=none;strokeColor=none;strokeWidth=1;fillColor=#12AAB5;gradientColor=none;fontFamily=Helvetica;fontSize=16;fontColor=#2F5B7C;align=center;opacity=50;spacing=15;" parent="1" vertex="1">
          <mxGeometry x="724.5" y="313.5" width="45" height="45" as="geometry" />
        </mxCell>
        <mxCell id="21646" value="" style="ellipse;whiteSpace=wrap;html=1;aspect=fixed;rounded=1;shadow=0;glass=0;labelBackgroundColor=none;strokeColor=none;strokeWidth=1;fillColor=#AE4132;gradientColor=none;fontFamily=Helvetica;fontSize=16;fontColor=#2F5B7C;align=center;opacity=50;spacing=15;" parent="1" vertex="1">
          <mxGeometry x="724.5" y="313.5" width="45" height="45" as="geometry" />
        </mxCell>
        <mxCell id="21647" value="y" style="ellipse;whiteSpace=wrap;html=1;aspect=fixed;rounded=1;shadow=0;glass=0;labelBackgroundColor=none;strokeColor=none;strokeWidth=1;fillColor=#56517E;gradientColor=none;fontFamily=Helvetica;fontSize=16;fontColor=#2F5B7C;align=center;opacity=50;spacing=15;" parent="1" vertex="1">
          <mxGeometry x="724.5" y="313.5" width="45" height="45" as="geometry" />
        </mxCell>
        <mxCell id="21648" value="failure" style="text;html=1;resizable=0;points=[];autosize=1;align=left;verticalAlign=top;spacingTop=-4;fontSize=16;fontFamily=Helvetica;fontColor=#2F5B7C;" parent="1" vertex="1">
          <mxGeometry x="799.5" y="336" width="60" height="20" as="geometry" />
        </mxCell>
        <mxCell id="21649" value="not late" style="text;html=1;strokeColor=none;fillColor=none;align=center;verticalAlign=middle;whiteSpace=wrap;rounded=0;shadow=0;glass=0;labelBackgroundColor=none;fontFamily=Helvetica;fontSize=13;fontColor=#2F5B7C;" parent="1" vertex="1">
          <mxGeometry x="494.5" y="336.5" width="40" height="20" as="geometry" />
        </mxCell>
        <mxCell id="21650" value="late" style="text;html=1;strokeColor=none;fillColor=none;align=center;verticalAlign=middle;whiteSpace=wrap;rounded=0;shadow=0;glass=0;labelBackgroundColor=none;fontFamily=Helvetica;fontSize=13;fontColor=#2F5B7C;" parent="1" vertex="1">
          <mxGeometry x="504.5" y="473.5" width="40" height="20" as="geometry" />
        </mxCell>
        <mxCell id="21651" value="lost" style="text;html=1;strokeColor=none;fillColor=none;align=center;verticalAlign=middle;whiteSpace=wrap;rounded=0;shadow=0;glass=0;labelBackgroundColor=none;fontFamily=Helvetica;fontSize=13;fontColor=#2F5B7C;" parent="1" vertex="1">
          <mxGeometry x="394.5" y="473.5" width="40" height="20" as="geometry" />
        </mxCell>
        <mxCell id="21652" value="not lost" style="text;html=1;strokeColor=none;fillColor=none;align=center;verticalAlign=middle;whiteSpace=wrap;rounded=0;shadow=0;glass=0;labelBackgroundColor=none;fontFamily=Helvetica;fontSize=13;fontColor=#2F5B7C;" parent="1" vertex="1">
          <mxGeometry x="394.5" y="336" width="40" height="20" as="geometry" />
        </mxCell>
        <mxCell id="xzxPgVEJgogzn3aEQKpY-21652" value="MSSQL" style="rounded=1;whiteSpace=wrap;html=1;" vertex="1" parent="1">
          <mxGeometry x="150" y="-140" width="120" height="60" as="geometry" />
        </mxCell>
        <mxCell id="xzxPgVEJgogzn3aEQKpY-21653" value="&lt;font style=&quot;font-size: 14px;&quot;&gt;&lt;b&gt;DATA INTEGRATION&lt;/b&gt;&lt;/font&gt;" style="image;aspect=fixed;perimeter=ellipsePerimeter;html=1;align=center;shadow=0;dashed=0;fontColor=#4277BB;labelBackgroundColor=default;fontSize=12;spacingTop=3;image=img/lib/ibm/analytics/data_integration.svg;" vertex="1" parent="1">
          <mxGeometry x="1000" y="-210" width="146" height="146" as="geometry" />
        </mxCell>
        <mxCell id="xzxPgVEJgogzn3aEQKpY-21654" value="&lt;font style=&quot;font-size: 14px;&quot;&gt;&lt;b&gt;CACHE&lt;/b&gt;&lt;/font&gt;" style="image;aspect=fixed;perimeter=ellipsePerimeter;html=1;align=center;shadow=0;dashed=0;fontColor=#4277BB;labelBackgroundColor=default;fontSize=12;spacingTop=3;image=img/lib/ibm/data/caches.svg;" vertex="1" parent="1">
          <mxGeometry x="1220" y="-207" width="140" height="140" as="geometry" />
        </mxCell>
        <mxCell id="xzxPgVEJgogzn3aEQKpY-21656" value="" style="fontColor=#0066CC;verticalAlign=top;verticalLabelPosition=bottom;labelPosition=center;align=center;html=1;outlineConnect=0;fillColor=#CCCCCC;strokeColor=#6881B3;gradientColor=none;gradientDirection=north;strokeWidth=2;shape=mxgraph.networks.storage;" vertex="1" parent="1">
          <mxGeometry x="485" y="-180" width="100" height="100" as="geometry" />
        </mxCell>
        <mxCell id="xzxPgVEJgogzn3aEQKpY-21658" value="" style="sketch=0;outlineConnect=0;fontColor=#232F3E;gradientColor=none;fillColor=#C925D1;strokeColor=none;dashed=0;verticalLabelPosition=bottom;verticalAlign=top;align=center;html=1;fontSize=12;fontStyle=0;aspect=fixed;pointerEvents=1;shape=mxgraph.aws4.rds_sql_server_instance;" vertex="1" parent="1">
          <mxGeometry x="407" y="-580" width="180" height="180" as="geometry" />
        </mxCell>
        <mxCell id="xzxPgVEJgogzn3aEQKpY-21659" value="" style="shape=flexArrow;endArrow=classic;html=1;rounded=0;entryX=0;entryY=0.25;entryDx=0;entryDy=0;" edge="1" parent="1" target="xzxPgVEJgogzn3aEQKpY-21661">
          <mxGeometry width="50" height="50" relative="1" as="geometry">
            <mxPoint x="590" y="-545" as="sourcePoint" />
            <mxPoint x="750" y="-580" as="targetPoint" />
          </mxGeometry>
        </mxCell>
        <mxCell id="xzxPgVEJgogzn3aEQKpY-21661" value="&lt;font style=&quot;font-size: 24px;&quot;&gt;&lt;b style=&quot;&quot;&gt;WPF&lt;/b&gt;&lt;/font&gt;" style="rounded=1;whiteSpace=wrap;html=1;" vertex="1" parent="1">
          <mxGeometry x="760" y="-610" width="210" height="80" as="geometry" />
        </mxCell>
        <mxCell id="xzxPgVEJgogzn3aEQKpY-21663" value="&lt;b&gt;&lt;font style=&quot;font-size: 14px;&quot;&gt;POWER BI&lt;/font&gt;&lt;/b&gt;" style="rounded=0;whiteSpace=wrap;html=1;" vertex="1" parent="1">
          <mxGeometry x="815" y="-630" width="100" height="40" as="geometry" />
        </mxCell>
        <mxCell id="xzxPgVEJgogzn3aEQKpY-21664" value="&lt;font style=&quot;font-size: 24px;&quot;&gt;&lt;b style=&quot;&quot;&gt;Excel&lt;/b&gt;&lt;/font&gt;" style="rounded=1;whiteSpace=wrap;html=1;" vertex="1" parent="1">
          <mxGeometry x="750" y="-440" width="210" height="80" as="geometry" />
        </mxCell>
        <mxCell id="xzxPgVEJgogzn3aEQKpY-21665" value="&lt;b&gt;&lt;font style=&quot;font-size: 14px;&quot;&gt;POWER BI&lt;/font&gt;&lt;/b&gt;" style="rounded=0;whiteSpace=wrap;html=1;" vertex="1" parent="1">
          <mxGeometry x="805" y="-460" width="100" height="40" as="geometry" />
        </mxCell>
        <mxCell id="xzxPgVEJgogzn3aEQKpY-21666" value="" style="shape=flexArrow;endArrow=classic;html=1;rounded=0;" edge="1" parent="1">
          <mxGeometry width="50" height="50" relative="1" as="geometry">
            <mxPoint x="600" y="-470" as="sourcePoint" />
            <mxPoint x="745" y="-400" as="targetPoint" />
          </mxGeometry>
        </mxCell>
      </root>
    </mxGraphModel>
  </diagram>
</mxfile>
